<svg xmlns="http://www.w3.org/2000/svg" width="30" height="30">
    <defs>
        <style>
            .cls-2{stroke:#fff;fill:#fff;stroke-width:.2px}
        </style>
    </defs>
    <g id="Group_8319" data-name="Group 8319" transform="translate(-440 -244)">
        <g id="Ellipse_122" data-name="Ellipse 122" transform="translate(440 244)" style="stroke:#fff;fill:#567df4;stroke-width:1.5px">
            <circle cx="15" cy="15" r="15" style="stroke:none"/>
            <circle cx="15" cy="15" r="14.25" style="fill:none"/>
        </g>
        <g id="interface_4_" data-name="interface (4)" transform="translate(446.076 207.047)">
            <g id="Group_1097" data-name="Group 1097" transform="translate(0 44.8)">
                <g id="Group_1096" data-name="Group 1096">
                    <path id="Path_18371" data-name="Path 18371" class="cls-2" d="M17.133 46.973a1.905 1.905 0 0 0-1.4-.59h-2.8v-.033a1.513 1.513 0 0 0-.455-1.1 1.541 1.541 0 0 0-1.1-.455H6.334a1.553 1.553 0 0 0-1.567 1.55v.034H1.988a1.905 1.905 0 0 0-1.4.59 2 2 0 0 0-.59 1.4v8.389a1.905 1.905 0 0 0 .59 1.4 2 2 0 0 0 1.4.59h13.746a1.905 1.905 0 0 0 1.4-.59 2 2 0 0 0 .59-1.4v-8.387a1.905 1.905 0 0 0-.591-1.398zm-.286 9.788h-.017a1.093 1.093 0 0 1-1.1 1.1H1.988a1.093 1.093 0 0 1-1.1-1.1v-8.39a1.093 1.093 0 0 1 1.1-1.1h3.251a.453.453 0 0 0 .455-.455v-.489a.634.634 0 0 1 .657-.657h5.037a.634.634 0 0 1 .657.657v.489a.453.453 0 0 0 .455.455h3.251a1.093 1.093 0 0 1 1.1 1.1z" transform="translate(0 -44.8)"/>
                    <path id="Path_18372" data-name="Path 18372" class="cls-2" d="M116.144 130.8a4.141 4.141 0 1 0 2.931 1.213 4.152 4.152 0 0 0-2.931-1.213zm2.291 6.452a3.254 3.254 0 0 1-4.582 0 3.22 3.22 0 0 1-.943-2.291 3.292 3.292 0 0 1 .943-2.291 3.22 3.22 0 0 1 2.291-.943 3.292 3.292 0 0 1 2.291.943 3.22 3.22 0 0 1 .943 2.291 3.152 3.152 0 0 1-.943 2.291z" transform="translate(-107.283 -127.178)"/>
                    <circle id="Ellipse_121" data-name="Ellipse 121" class="cls-2" cx=".825" cy=".825" r=".825" transform="translate(14.033 3.605)"/>
                </g>
            </g>
        </g>
    </g>
</svg>
