<svg xmlns="http://www.w3.org/2000/svg" width="19.949" height="17.628">
    <path data-name="Path 18295" d="M16.793 9.576H.54L.489 24.89a1.314 1.314 0 0 0 1.316 1.31h16.3a1.314 1.314 0 0 0 1.316-1.314l.016-15.314z" transform="translate(.011 -9.076)" style="fill:none;stroke:#567df4"/>
    <path data-name="Path 18296" d="M11.987 10.515 8.7 6.541s-.5-.473.042-.473h1.854V.282S10.52 0 10.944 0h2.609c.306 0 .3.237.3.237v5.712h1.711c.659 0 .163.495.163.495s-2.8 3.715-3.189 4.1a.365.365 0 0 1-.551-.029z" transform="translate(-2.231 3.324)" style="fill:#567df4"/>
</svg>
