<svg xmlns="http://www.w3.org/2000/svg" width="19.807" height="25">
    <defs>
        <style>
            .cls-1{fill:#567df4}
        </style>
    </defs>
    <g id="surface1" transform="translate(-.5)">
        <path id="Path_34" data-name="Path 34" d="M13.972.193A.6.6 0 0 0 13.537 0H3.785A3.3 3.3 0 0 0 .5 3.279v18.442A3.3 3.3 0 0 0 3.785 25h13.237a3.3 3.3 0 0 0 3.285-3.279V7.077a.65.65 0 0 0-.175-.423zm.175 1.938 4.124 4.33h-2.68a1.438 1.438 0 0 1-1.443-1.437zm2.874 21.661H3.785a2.092 2.092 0 0 1-2.077-2.071V3.279a2.092 2.092 0 0 1 2.077-2.071h9.155v3.816a2.642 2.642 0 0 0 2.651 2.645H19.1v14.052a2.088 2.088 0 0 1-2.078 2.071zm0 0"/>
        <path id="Path_35" data-name="Path 35" class="cls-1" d="M99.344 401.934h-9.59a.633.633 0 0 0 0 1.262h9.6a.633.633 0 0 0-.006-1.262zm0 0" transform="translate(-84.146 -382.353)"/>
        <path id="Path_36" data-name="Path 36" class="cls-1" d="m119.485 175.328 2.6-2.8v6.893a.631.631 0 1 0 1.263 0v-6.893l2.6 2.8a.63.63 0 0 0 .922-.859l-3.7-3.971a.627.627 0 0 0-.922 0l-3.7 3.971a.629.629 0 0 0 .031.89.644.644 0 0 0 .906-.031zm0 0" transform="translate(-112.313 -162.206)"/>
    </g>
</svg>
