<svg xmlns="http://www.w3.org/2000/svg" width="20.415" height="20.415">
    <path data-name="Path 1" d="M51.723 301.5a10.094 10.094 0 0 1-15.323-2.6l.663-3.055L40 295.3a5.421 5.421 0 0 0 5.156 3.816 5.306 5.306 0 0 0 3.158-1.029l2.823.431z" transform="translate(-34.949 -283.525)" style="fill:#59c36a"/>
    <path data-name="Path 2" d="m262.567 368.609-.586-2.978-2.823-.431a5.306 5.306 0 0 1-3.158 1.029v4.825a10.192 10.192 0 0 0 6.567-2.445z" transform="translate(-245.793 -350.638)" style="fill:#00a66c"/>
    <g data-name="Group 3">
        <g data-name="Group 2">
            <g data-name="Group 1">
                <path data-name="Path 3" d="M4.825 131.568a5.574 5.574 0 0 0 .227 1.567l-3.6 3.6a9.925 9.925 0 0 1 0-10.335l2.89.5.711 3.1a5.574 5.574 0 0 0-.228 1.568z" transform="translate(0 -121.36)" style="fill:#ffda2d"/>
            </g>
        </g>
    </g>
    <path data-name="Path 4" d="M251.806 198.392a10.192 10.192 0 0 1-3.64 7.763l-3.409-3.409a5.293 5.293 0 0 0 1.663-1.962h-4.82a.592.592 0 0 1-.6-.6V196.6a.592.592 0 0 1 .6-.6h9.442a.591.591 0 0 1 .586.49 10.142 10.142 0 0 1 .178 1.902z" transform="translate(-231.391 -188.185)" style="fill:#4086f4"/>
    <path data-name="Path 5" d="M260.821 200.785a5.293 5.293 0 0 1-1.663 1.962l3.409 3.409a10.11 10.11 0 0 0 3.461-9.665.591.591 0 0 0-.586-.49H256v4.785z" transform="translate(-245.792 -188.185)" style="fill:#4175df"/>
    <path data-name="Path 6" d="M51.891 2.851a.6.6 0 0 1-.167.443l-2.56 2.548a.586.586 0 0 1-.777.06 5.35 5.35 0 0 0-3.23-1.077A5.421 5.421 0 0 0 40 8.64l-3.6-3.6a10.088 10.088 0 0 1 15.275-2.632.629.629 0 0 1 .215.443z" transform="translate(-34.949)" style="fill:#ff641a"/>
    <path data-name="Path 7" d="M259.23 5.9a.586.586 0 0 0 .778-.06l2.56-2.548a.6.6 0 0 0 .167-.443.629.629 0 0 0-.215-.443A10.177 10.177 0 0 0 256 0v4.825a5.35 5.35 0 0 1 3.23 1.075z" transform="translate(-245.793)" style="fill:#f03800"/>
</svg>
